<svg id="Слой_1" data-name="Слой 1" xmlns="http://www.w3.org/2000/svg" viewBox="0 0 80 80"><defs><style>.cls-1{fill:#989898;}.cls-2,.cls-3{fill:none;stroke:#989898;stroke-width:1.5px;}.cls-2{stroke-linecap:round;stroke-linejoin:round;}.cls-3{stroke-miterlimit:10;fill-rule:evenodd;}</style></defs><title>001</title><path class="cls-1" d="M40,1.5A38.5,38.5,0,1,1,1.5,40,38.54,38.54,0,0,1,40,1.5M40,0A40,40,0,1,0,80,40,40,40,0,0,0,40,0h0Z"/><path class="cls-2" d="M44.14,37.59a7.39,7.39,0,0,1-2.45,1.07,18,18,0,0,1-2.19,0,9.06,9.06,0,0,1-2.65-1.14M35.2,19.73q0.33-4.15,7.09-3.41,6.16,0.74,6.29,3.28a4.4,4.4,0,0,1-.13,1.07l-0.93,6.69q3,0.27-.66,5.22l-0.33,1.67a3.8,3.8,0,0,1-2.32,3.28,0.06,0.06,0,0,1-.07.07V41.2l8.94,4a3.75,3.75,0,0,1,2.32,4v8.23a21.7,21.7,0,0,1-14.31,5.42H40.17a22.22,22.22,0,0,1-14.44-5.42V49.23a3.76,3.76,0,0,1,2.32-4l8.81-4V37.52a4.15,4.15,0,0,1-2.32-3.28l-0.26-1.67q-3.58-5-.66-5.22l-1-5q-0.6-2.28,1.92-2.68H35.2q5.56,3.81,10.27,3.88"/><path class="cls-2" d="M42.41,34.13c4.57-1.1,5.81-2.38,6.39-6"/><path class="cls-3" d="M41.12,32.85h-1a1.28,1.28,0,0,0,0,2.56h1a1.28,1.28,0,0,0,0-2.56"/></svg>