<svg id="Слой_1" data-name="Слой 1" xmlns="http://www.w3.org/2000/svg" viewBox="0 0 80 80"><defs><style>.cls-1{fill:#80868f;}.cls-2{fill:none;stroke:#80868f;stroke-linecap:round;stroke-linejoin:round;stroke-width:1.5px;}</style></defs><title>001</title><path class="cls-1" d="M40,1.5a38.5,38.5,0,0,1,.14,77H40a38.5,38.5,0,0,1-.14-77H40M40,0H39.85A40,40,0,0,0,40,80h0.15A40,40,0,0,0,40,0h0Z"/><rect class="cls-2" x="27.75" y="25.5" width="24.49" height="24.94" transform="translate(-0.14 0.15) rotate(-0.21)"/><line class="cls-2" x1="37.54" y1="22.09" x2="42.33" y2="22.07"/><circle class="cls-1" cx="40.06" cy="55.95" r="1.78" transform="translate(-0.21 0.15) rotate(-0.21)"/><rect class="cls-2" x="27.76" y="18.66" width="24.49" height="42.77" rx="2.73" ry="2.73" transform="translate(-0.15 0.15) rotate(-0.21)"/></svg>