<svg id="Слой_1" data-name="Слой 1" xmlns="http://www.w3.org/2000/svg" viewBox="0 0 80 80"><defs><style>.cls-1{fill:none;stroke:#989898;stroke-linecap:round;stroke-linejoin:round;stroke-width:1.5px;}.cls-2{fill:#989898;}</style></defs><title>001</title><line class="cls-1" x1="42.9" y1="18.32" x2="42.9" y2="20.19"/><line class="cls-1" x1="37.22" y1="18.32" x2="37.22" y2="20.19"/><line class="cls-1" x1="41.56" y1="37.9" x2="46.94" y2="32.53"/><path class="cls-2" d="M40,1.5A38.5,38.5,0,1,1,1.5,40,38.54,38.54,0,0,1,40,1.5M40,0A40,40,0,1,0,80,40,40,40,0,0,0,40,0h0Z"/><circle class="cls-1" cx="40" cy="40" r="20"/><circle class="cls-1" cx="40" cy="39.47" r="2.12"/><line class="cls-1" x1="23.27" y1="39.28" x2="25.7" y2="39.28"/><line class="cls-1" x1="40" y1="56.01" x2="40" y2="53.58"/><line class="cls-1" x1="56.73" y1="39.28" x2="54.3" y2="39.28"/><path class="cls-1" d="M42.78,14.17H37.22a1.34,1.34,0,0,0-1.33,1.33V17a1.34,1.34,0,0,0,1.33,1.33h5.56A1.34,1.34,0,0,0,44.11,17V15.5A1.34,1.34,0,0,0,42.78,14.17Z"/><line class="cls-1" x1="40" y1="37.35" x2="40" y2="25.73"/></svg>