<svg id="Слой_1" data-name="Слой 1" xmlns="http://www.w3.org/2000/svg" viewBox="0 0 80 80"><defs><style>.cls-1{fill:#80868f;}.cls-2{fill:none;stroke:#80868f;stroke-linecap:round;stroke-linejoin:round;stroke-width:1.5px;}</style></defs><title>001</title><path class="cls-1" d="M40,1.5a38.5,38.5,0,0,1,.14,77H40a38.5,38.5,0,0,1-.14-77H40M40,0H39.85A40,40,0,0,0,40,80h0.15A40,40,0,0,0,40,0h0Z"/><polyline class="cls-2" points="36.63 33.75 44.11 33.73 44.14 41.2"/><line class="cls-2" x1="43.88" y1="33.96" x2="35.87" y2="42.02"/><path class="cls-2" d="M57.21,49.27l-0.08-21a2.67,2.67,0,0,0-2.68-2.66l-29.32.11a2.67,2.67,0,0,0-2.66,2.68l0.08,21"/><path class="cls-2" d="M16.6,49.42v2.67a2.67,2.67,0,0,0,2.68,2.66l41.32-.15a2.68,2.68,0,0,0,2.66-2.68V49.25Z"/></svg>