<svg id="Слой_1" data-name="Слой 1" xmlns="http://www.w3.org/2000/svg" viewBox="0 0 80 80"><defs><style>.cls-1{fill:#989898;}.cls-2{fill:none;stroke:#989898;stroke-linecap:round;stroke-linejoin:round;stroke-width:1.5px;}</style></defs><title>001</title><path class="cls-1" d="M40,1.5a38.5,38.5,0,0,1,.14,77H40a38.5,38.5,0,0,1-.14-77H40M40,0H39.85A40,40,0,0,0,40,80h0.15A40,40,0,0,0,40,0h0Z"/><path class="cls-2" d="M40.08,45.18a1.47,1.47,0,0,1-1.7-2.34c0.54-.39,5.28-3,5.74-2.39S40.62,44.78,40.08,45.18Z"/><line class="cls-2" x1="40.18" y1="26.49" x2="40.19" y2="29.13"/><line class="cls-2" x1="32.97" y1="28.34" x2="34.3" y2="30.62"/><line class="cls-2" x1="27.65" y1="33.55" x2="29.94" y2="34.86"/><line class="cls-2" x1="25.65" y1="40.72" x2="28.29" y2="40.71"/><line class="cls-2" x1="54.4" y1="40.61" x2="51.76" y2="40.62"/><line class="cls-2" x1="52.56" y1="33.82" x2="50.27" y2="35.15"/><line class="cls-2" x1="47.35" y1="28.5" x2="46.04" y2="30.79"/><path class="cls-2" d="M54.45,40.61c0-.18,0-0.35,0-0.53a14.47,14.47,0,0,0-28.95.11c0,0.18,0,.35,0,0.53"/><path class="cls-2" d="M62.5,39.94A22.5,22.5,0,1,0,21.22,52.4l37.64-.14A22.38,22.38,0,0,0,62.5,39.94Z"/></svg>