<svg id="Слой_1" data-name="Слой 1" xmlns="http://www.w3.org/2000/svg" viewBox="0 0 80 80"><defs><style>.cls-1{fill:#80868f;}.cls-2{fill:none;stroke:#80868f;stroke-linecap:round;stroke-linejoin:round;stroke-width:1.5px;}</style></defs><title>001</title><path class="cls-1" d="M40,1.5a38.5,38.5,0,0,1,.14,77H40a38.5,38.5,0,0,1-.14-77H40M40,0H39.85A40,40,0,0,0,40,80h0.15A40,40,0,0,0,40,0h0Z"/><path class="cls-2" d="M46.61,28.62c-1.46,1.46-3.32,1.32-6.61,1.32,0-3.29-.14-5.15,1.32-6.61A3.74,3.74,0,1,1,46.61,28.62Z"/><path class="cls-2" d="M33.39,28.62c1.46,1.46,3.32,1.32,6.61,1.32,0-3.29.14-5.15-1.32-6.61A3.74,3.74,0,1,0,33.39,28.62Z"/><polyline class="cls-2" points="25.29 37.97 25.29 57.24 54.7 57.24 54.7 37.97"/><rect class="cls-2" x="23.03" y="29.95" width="33.93" height="7.92"/><line class="cls-2" x1="40" y1="57.24" x2="40" y2="28.85"/></svg>