<svg id="Слой_1" data-name="Слой 1" xmlns="http://www.w3.org/2000/svg" viewBox="0 0 80 80"><defs><style>.cls-1{fill:none;stroke:#658eb5;stroke-miterlimit:10;stroke-width:1.5px;}.cls-2{fill:#658eb5;}</style></defs><title>001</title><path class="cls-1" d="M49.11,40.33a8.32,8.32,0,0,1,4-7,8.51,8.51,0,0,0-6.71-3.62c-2.82-.3-5.56,1.69-7,1.69s-3.68-1.66-6.06-1.61a8.93,8.93,0,0,0-7.52,4.58C22.54,40,25,48.28,28.07,52.83c1.56,2.23,3.38,4.71,5.76,4.63S37,56,39.85,56s3.6,1.49,6,1.43,4.08-2.24,5.58-4.49A18.38,18.38,0,0,0,54,47.72,8,8,0,0,1,49.11,40.33Z"/><path class="cls-1" d="M45.35,23.95A7.2,7.2,0,0,0,47,18.79a7.33,7.33,0,0,0-4.74,2.45,6.85,6.85,0,0,0-1.69,5A6.05,6.05,0,0,0,45.35,23.95Z"/><path class="cls-2" d="M40,1.5A38.5,38.5,0,1,1,1.5,40,38.54,38.54,0,0,1,40,1.5M40,0A40,40,0,1,0,80,40,40,40,0,0,0,40,0h0Z"/></svg>