<svg id="Слой_1" data-name="Слой 1" xmlns="http://www.w3.org/2000/svg" viewBox="0 0 80 80"><defs><style>.cls-1{fill:none;stroke:#658eb5;stroke-linecap:round;stroke-linejoin:round;stroke-width:1.5px;}.cls-2{fill:#658eb5;}</style></defs><title>001</title><path class="cls-1" d="M51.31,34.64L59,38.87a1.7,1.7,0,0,1,1.14,1.49A1.88,1.88,0,0,1,59,41.84l-7.66,4.23L29.25,58a1.78,1.78,0,0,1-1.71.23l-0.11-.11a1.64,1.64,0,0,1-.91-1.6V24.35a2,2,0,0,1,.91-1.83l0.11-.11a1.78,1.78,0,0,1,1.71.23l22.06,12-5.83,5.71,5.83,5.71"/><polyline class="cls-1" points="27.54 58.18 45.48 40.35 27.54 22.41"/><path class="cls-2" d="M40,1.5A38.5,38.5,0,1,1,1.5,40,38.54,38.54,0,0,1,40,1.5M40,0A40,40,0,1,0,80,40,40,40,0,0,0,40,0h0Z"/></svg>