<svg id="Слой_1" data-name="Слой 1" xmlns="http://www.w3.org/2000/svg" viewBox="0 0 120 120"><defs><style>.cls-2{fill:#fbd313;}.cls-1{fill:none;stroke:#060607;stroke-linecap:round;stroke-linejoin:round;stroke-width:1.5px;}</style></defs><title>001</title><circle class="cls-2" cx="60" cy="60" r="60"/><path class="cls-1" d="M73.65,48V38.44A12,12,0,0,0,61.7,26.49H58.11A12,12,0,0,0,46.16,38.44V48"/><path class="cls-1" d="M52.19,48.2V38.44a5.93,5.93,0,0,1,5.92-5.92H61.7a5.92,5.92,0,0,1,5.92,5.92V48.2"/><path class="cls-1" d="M64.78,62.66A4.78,4.78,0,1,0,58,67V73.2a2,2,0,1,0,3.92,0V67A4.78,4.78,0,0,0,64.78,62.66Z"/><rect class="cls-1" x="36.22" y="48.2" width="47.56" height="37.47" rx="4" ry="4"/></svg>