<svg id="Слой_1" data-name="Слой 1" xmlns="http://www.w3.org/2000/svg" viewBox="0 0 120 120"><defs><style>.cls-1{fill:none;stroke:#060607;stroke-linecap:round;stroke-linejoin:round;stroke-width:1.5px;}.cls-2{fill:#fbd313;}</style></defs><title>001</title><line class="cls-1" x1="64.34" y1="27.48" x2="64.34" y2="30.29"/><line class="cls-1" x1="55.83" y1="27.49" x2="55.83" y2="30.29"/><line class="cls-1" x1="62.35" y1="56.85" x2="70.41" y2="48.79"/><circle class="cls-2" cx="60" cy="60" r="60"/><circle class="cls-1" cx="60" cy="60" r="30"/><circle class="cls-1" cx="60" cy="59.2" r="3.18"/><line class="cls-1" x1="34.91" y1="58.92" x2="38.55" y2="58.92"/><line class="cls-1" x1="60" y1="84.01" x2="60" y2="80.37"/><line class="cls-1" x1="85.09" y1="58.92" x2="81.45" y2="58.92"/><path class="cls-1" d="M64.17,21.25H55.83a2,2,0,0,0-2,2v2.24a2,2,0,0,0,2,2h8.34a2,2,0,0,0,2-2V23.25A2,2,0,0,0,64.17,21.25Z"/><line class="cls-1" x1="60" y1="56.02" x2="60" y2="33.83"/></svg>