<svg id="Слой_1" data-name="Слой 1" xmlns="http://www.w3.org/2000/svg" viewBox="0 0 120 120">

<defs><style>.cls-2{fill:#fcd40c;}.cls-1{fill:none;stroke:#000;stroke-linecap:round;stroke-linejoin:round;stroke-width:1.5px;}</style></defs>

<title>001</title><circle class="cls-2" cx="60" cy="60" r="60"/><rect class="cls-1" x="28.23" y="54.24" width="15" height="30"/><line class="cls-1" x1="86.71" y1="58.02" x2="82.36" y2="58.02"/><path class="cls-1" d="M72,34.3c-0.27-3.41-3.1-6.41-6.52-6.14L61.07,40.92,50.15,54.26H43.23V78.92c9.33,0,12.5,6.11,21.24,6.11H83.73a4.44,4.44,0,0,0,0-8.87H79.86V76h5.35a4.44,4.44,0,0,0,0-8.87H82.36V66.89h4.35a4.44,4.44,0,0,0,0-8.87h0.48a4.44,4.44,0,0,0,0-8.87H67.26C71.23,43.42,72.24,37.71,72,34.3Z"/></svg>