<svg id="Слой_1" data-name="Слой 1" xmlns="http://www.w3.org/2000/svg" viewBox="0 0 120 120"><defs><style>.cls-1{fill:#ffd211;}.cls-2{fill:none;stroke:#303745;stroke-linecap:round;stroke-linejoin:round;stroke-width:1.5px;}</style></defs><title>001</title><circle class="cls-1" cx="60" cy="60" r="60"/><path class="cls-2" d="M32.9,70a5.49,5.49,0,0,0,1.18,3.39A12.87,12.87,0,0,0,36.55,76a14.22,14.22,0,0,0,9,2.89A14.37,14.37,0,0,0,54.57,76a15.88,15.88,0,0,0,2.56-2.59A5.49,5.49,0,0,0,58.32,70V61.55a7.42,7.42,0,0,1-1.18,3.69A7.58,7.58,0,0,1,54.67,68a14.79,14.79,0,0,1-9.16,2.89,14.22,14.22,0,0,1-9-2.89A8.54,8.54,0,0,1,34,65.24a6.77,6.77,0,0,1-1.08-3.59m0-8A7.2,7.2,0,0,0,34,57.26,9,9,0,0,0,36.55,60a14.22,14.22,0,0,0,9,2.89A14.79,14.79,0,0,0,54.67,60a9,9,0,0,0,2.56-2.69,9.41,9.41,0,0,0,1.08-4.19m0-.8v1.3M83.73,69.83a6.88,6.88,0,0,1-1.08,3.59A20.28,20.28,0,0,1,80,76a14,14,0,0,1-9,2.89A14.63,14.63,0,0,1,62,76a12.87,12.87,0,0,1-2.46-2.59A6.78,6.78,0,0,1,58.32,70v7.78M83.73,53.57a8.8,8.8,0,0,1-1,3.69,9.69,9.69,0,0,1-2.66,2.79A14.37,14.37,0,0,1,71,62.95,14.63,14.63,0,0,1,62,60.05a7.58,7.58,0,0,1-2.46-2.79,7.42,7.42,0,0,1-1.18-3.69v8a7.42,7.42,0,0,0,1.18,3.69A7.58,7.58,0,0,0,62,68,14.63,14.63,0,0,0,71,70.93,14.37,14.37,0,0,0,80.09,68a8.54,8.54,0,0,0,2.56-2.79,8.2,8.2,0,0,0,1.08-3.79m0-16.07a9.53,9.53,0,0,1-1.08,4,14,14,0,0,1-2.56,2.69A14.72,14.72,0,0,1,71,54.86,15,15,0,0,1,62,52.07a11.63,11.63,0,0,1-2.46-2.69,8.76,8.76,0,0,1-1.18-4M83.73,37.6V36.3a8.28,8.28,0,0,0-3.64-5.79A14.72,14.72,0,0,0,71,27.72,15,15,0,0,0,62,30.51a8.4,8.4,0,0,0-3.64,6.69v0.4a7.42,7.42,0,0,0,1.18,3.69A8.79,8.79,0,0,0,62,44.09,14.63,14.63,0,0,0,71,47a14.37,14.37,0,0,0,9.06-2.89,11.74,11.74,0,0,0,2.66-2.79,8.8,8.8,0,0,0,1-3.69V77.82a8,8,0,0,1-3.64,6.39A14.37,14.37,0,0,1,71,87.1,14.63,14.63,0,0,1,62,84.21a8,8,0,0,1-3.64-6.39,8,8,0,0,1-3.64,6.39,14.79,14.79,0,0,1-9.16,2.89,14.22,14.22,0,0,1-9-2.89,7.65,7.65,0,0,1-3.64-6.39V53.47a8.32,8.32,0,0,1,3.64-7,14.23,14.23,0,0,1,9-2.89,14.8,14.8,0,0,1,9.16,2.89,8.74,8.74,0,0,1,3.64,5.79V37.6"/></svg>