<svg id="Слой_1" data-name="Слой 1" xmlns="http://www.w3.org/2000/svg" viewBox="0 0 120 120"><defs><style>.cls-1{fill:#ffd013;}.cls-2{fill:none;stroke:#242424;stroke-linecap:round;stroke-linejoin:round;stroke-width:1.5px;}</style></defs><title>001</title><circle class="cls-1" cx="60" cy="60" r="60"/><path id="Layer14_0_2_STROKES" data-name="Layer14 0 2 STROKES" class="cls-2" d="M85.2,55.6l9.2-11.5a17.07,17.07,0,0,0-5.7-8.7L72,55.9l-4.3-5.5,2.2-7.5a23.43,23.43,0,0,1,5.9-.2l-2-6.6H65.4l-5.7,9.2L54,36.1H45.5l-1.8,6.6q1.3-.4,5.7.2l2.5,7.5-4.6,5.5L30.9,35.2a17.26,17.26,0,0,0-4.2,5.4,1.11,1.11,0,0,0-.1.5,8.89,8.89,0,0,0-1.2,2.8l9.1,11.7M94.4,44.1a49.8,49.8,0,0,1,1.2,5.7q1.3,9.9-5.1,16.8T72,72.3v1.9l-6.9,2.1v3q9.2,2.4,10.1,9a30.62,30.62,0,0,1-15.5,5.1,29.67,29.67,0,0,1-15.4-5.1q0.6-6.6,9.9-9v-3l-6.8-2.1V72.3q-12,1.2-18.3-5.7T24,49.8q0.2-1.1.3-2,0.5-2.1,1.1-3.9M72,72.3V65.2m-24.6,0v7.1"/></svg>